<svg id="Layer_1" data-name="Layer 1" xmlns="http://www.w3.org/2000/svg" viewBox="0 0 156.59 49.66"><title>OLabs-Logo-Flat-Color</title><polygon points="41.41 11.96 39.51 10.05 39.51 7.36 41.41 5.46 44.11 5.46 46.01 7.36 46.01 10.05 44.11 11.96 41.41 11.96" style="fill:#539cd5"/><polygon points="30.33 14.07 27.9 16.51 27.9 19.95 30.33 22.39 33.77 22.39 36.21 19.95 36.21 16.51 33.77 14.07 30.33 14.07" style="fill:#539cd5"/><polygon points="31.47 5.75 33.15 4.06 33.15 1.68 31.47 0 29.09 0 27.4 1.68 27.4 4.06 29.09 5.75 31.47 5.75" style="fill:#539cd5"/><path d="M37.72,23.87l-0.82.82H32.19l-3.33-3.33v-4.7l0.82-.83L28,14.2h-15L2.49,24.79v15L13.07,50.34H28L38.63,39.76v-15ZM32,37l-6.69,6.69H15.83L9.14,37V27.54l6.69-6.69h9.46L32,27.54V37Z" transform="translate(-2.49 -0.79)" style="fill:#f7901e"/><polygon points="65.8 33.18 49.78 33.18 49.78 14.04 39.45 14.04 39.45 40.22 65.8 40.22 65.8 33.18" style="fill:#fff"/><path d="M98.55,37.89V28.21c0-6-3.7-8.06-13-8.06-4.84,0-8.18.36-10.41,1.39s-3.41,2.75-4,5.5h9.16c0.44-1.94,2.53-2.27,4.62-2.27,2.6,0,4.25.62,4.25,1.94,0,1.1-.62,1.54-2.46,1.65L79,28.73c-6.78.29-9.38,2.64-9.38,6.3,0,5.13,3.89,6.78,10,6.78,4.87,0,8-.88,10-2.79A7.84,7.84,0,0,0,90,41H99.4A5.29,5.29,0,0,1,98.55,37.89Zm-9.16-5.13C89.39,36.2,86,37,82.9,37c-2.27,0-3.41-.88-3.41-2.27s0.81-1.83,2.5-2c3.26-.29,5.86-0.51,7.4-0.84v0.88Z" transform="translate(-2.49 -0.79)" style="fill:#fff"/><path d="M118.65,20.4c-3.74,0-6.38.91-8,2.82h-0.07V13.92h-9.16V41h8.87V38.88h0.08c1.65,1.91,4.18,2.94,8.24,2.94,5.94,0,11.4-3.27,11.4-10.71S124.59,20.4,118.65,20.4Zm-3,15.25c-3.52,0-5-1.69-5-4.55s1.5-4.54,5.06-4.54c3.3,0,5,2,5,4.54S119.2,35.65,115.64,35.65Z" transform="translate(-2.49 -0.79)" style="fill:#fff"/><path d="M145.4,36.75a6.75,6.75,0,0,1-2.6-.37,1.94,1.94,0,0,1-1.14-1.61H130.89c0.29,5.06,4.44,7,14,7s14.15-2,14.15-7.15c0-3.41-1.87-5.61-6.82-6l-8.72-.77c-2-.18-2.46-0.73-2.46-1.25,0-.77.51-1.39,3.26-1.39a5.54,5.54,0,0,1,2.71.51,1.33,1.33,0,0,1,.7,1.25H158c-0.18-5.68-7-6.82-13.27-6.82-8.94,0-13.34,2-13.34,6.74,0,3.48,1.54,5.61,6.85,6.16L147.2,34a1.2,1.2,0,0,1,1.25,1.25C148.45,36.13,147.75,36.75,145.4,36.75Z" transform="translate(-2.49 -0.79)" style="fill:#fff"/><rect x="39.43" y="44.04" width="2.15" height="5.43" style="fill:#539cd5"/><polygon points="47.3 47.05 47.28 47.05 45.1 44.04 42.65 44.04 42.65 49.47 44.7 49.47 44.7 46.43 44.72 46.43 47 49.47 49.35 49.47 49.35 44.04 47.3 44.04 47.3 47.05" style="fill:#539cd5"/><polygon points="55.06 47.05 55.03 47.05 52.86 44.04 50.41 44.04 50.41 49.47 52.46 49.47 52.46 46.43 52.48 46.43 54.76 49.47 57.11 49.47 57.11 44.04 55.06 44.04 55.06 47.05" style="fill:#539cd5"/><path d="M64.08,44.64c-1.3,0-3.71.09-3.71,2.91s2.41,2.91,3.71,2.91,3.71-.09,3.71-2.91S65.38,44.64,64.08,44.64Zm0,4.44a1.54,1.54,0,1,1,1.43-1.53A1.31,1.31,0,0,1,64.08,49.08Z" transform="translate(-2.49 -0.79)" style="fill:#539cd5"/><polygon points="69.99 44.04 68.79 47.52 68.78 47.52 67.58 44.04 65.22 44.04 67.66 49.47 69.91 49.47 72.35 44.04 69.99 44.04" style="fill:#539cd5"/><path d="M78.79,44.83H76.16l-2.32,5.44h2.28l0.23-.63h2.24l0.23,0.63h2.28Zm-2,3.49,0.64-1.84h0l0.64,1.84h-1.3Z" transform="translate(-2.49 -0.79)" style="fill:#539cd5"/><polygon points="77.92 45.41 79.91 45.41 79.91 49.47 82.05 49.47 82.05 45.41 84.04 45.41 84.04 44.04 77.92 44.04 77.92 45.41" style="fill:#539cd5"/><rect x="84.56" y="44.04" width="2.15" height="5.43" style="fill:#539cd5"/><path d="M93.69,44.64c-1.3,0-3.71.09-3.71,2.91s2.41,2.91,3.71,2.91,3.71-.09,3.71-2.91S95,44.64,93.69,44.64Zm0,4.44a1.54,1.54,0,1,1,1.43-1.53A1.31,1.31,0,0,1,93.69,49.08Z" transform="translate(-2.49 -0.79)" style="fill:#539cd5"/><polygon points="100.33 47.05 100.31 47.05 98.13 44.04 95.68 44.04 95.68 49.47 97.74 49.47 97.74 46.43 97.75 46.43 100.04 49.47 102.39 49.47 102.39 44.04 100.33 44.04 100.33 47.05" style="fill:#539cd5"/><path d="M115.65,49.62l-0.09-1.19a0.88,0.88,0,0,0-.62-0.84h0a1.2,1.2,0,0,0,.84-1.24A1.49,1.49,0,0,0,115,45a2.88,2.88,0,0,0-1.29-.2h-4.52v5.44h2.15V48.59h1.52a0.54,0.54,0,0,1,.56.65,3.53,3.53,0,0,0,.12,1h2.34A1.22,1.22,0,0,1,115.65,49.62Zm-2.75-2.41h-1.52v-1h1.49a0.5,0.5,0,0,1,.62.51A0.48,0.48,0,0,1,112.91,47.22Z" transform="translate(-2.49 -0.79)" style="fill:#539cd5"/><path d="M127.22,44.83h-2.63l-2.25,5.28V48.94H118.7V48.21h3.37V46.88H118.7V46.15h3.63V44.83h-5.78v5.44h8l0.23-.63H127l0.23,0.63h2.28Zm-2,3.49,0.64-1.84h0l0.64,1.84h-1.3Z" transform="translate(-2.49 -0.79)" style="fill:#539cd5"/><polygon points="129.47 44.04 127.32 44.04 127.32 49.47 132.79 49.47 132.79 48.01 129.47 48.01 129.47 44.04" style="fill:#539cd5"/><rect x="133.4" y="44.04" width="2.15" height="5.43" style="fill:#539cd5"/><polygon points="136.49 45.41 139.52 45.41 136.26 48.32 136.26 49.47 142.33 49.47 142.33 48.1 139.23 48.1 142.41 45.23 142.41 44.04 136.49 44.04 136.49 45.41" style="fill:#539cd5"/><polygon points="143.11 49.47 148.89 49.47 148.89 48.15 145.26 48.15 145.26 47.42 148.63 47.42 148.63 46.09 145.26 46.09 145.26 45.36 148.89 45.36 148.89 44.04 143.11 44.04 143.11 49.47" style="fill:#539cd5"/><path d="M156.26,44.83h-4.18v5.44h4.22c1.8,0,2.77-.81,2.77-2.72S158.1,44.83,156.26,44.83Zm-0.8,4.06h-1.23V46.2h1.23A1.35,1.35,0,1,1,155.46,48.89Z" transform="translate(-2.49 -0.79)" style="fill:#539cd5"/></svg>