<svg id="Layer_1" data-name="Layer 1" xmlns="http://www.w3.org/2000/svg" viewBox="0 0 366.38 116.2"><defs><style>.cls-1{fill:#539cd5;}.cls-2{fill:#f7901e;}.cls-3{fill:#fff;}</style></defs><title>OLabs-Logo-Flat-Color</title><polygon class="cls-1" points="96.9 27.99 92.44 23.53 92.44 17.22 96.9 12.76 103.2 12.76 107.66 17.22 107.66 23.53 103.2 27.99 96.9 27.99"/><polygon class="cls-1" points="70.97 32.93 65.27 38.63 65.27 46.68 70.97 52.38 79.02 52.38 84.72 46.68 84.72 38.63 79.02 32.93 70.97 32.93"/><polygon class="cls-1" points="73.62 13.45 77.56 9.51 77.56 3.94 73.62 0 68.06 0 64.12 3.94 64.12 9.51 68.06 13.45 73.62 13.45"/><path class="cls-2" d="M82.43,54L80.5,55.94h-11l-7.78-7.78v-11l1.93-1.94L59.8,31.38h-35L0,56.15v35l24.77,24.77h35L84.57,91.18v-35ZM69,84.74L53.36,100.39H31.22L15.56,84.74V62.59L31.22,46.94H53.36L69,62.59V84.74Z" transform="translate(0 0)"/><polygon class="cls-3" points="153.96 77.63 116.48 77.63 116.48 32.86 92.29 32.86 92.29 94.09 153.96 94.09 153.96 77.63"/><path class="cls-3" d="M224.76,86.81V64.17c0-14-8.66-18.87-30.53-18.87-11.32,0-19.13.85-24.36,3.26s-8,6.43-9.26,12.86H182c1-4.55,5.92-5.32,10.81-5.32,6.09,0,10,1.46,10,4.55,0,2.57-1.46,3.6-5.75,3.86l-18.1.86c-15.86.68-22,6.17-22,14.75,0,12,9.09,15.87,23.5,15.87,11.4,0,18.69-2.06,23.5-6.52a18.35,18.35,0,0,0,.77,4.63h22A12.37,12.37,0,0,1,224.76,86.81Zm-21.44-12c0,8.06-8,9.86-15.18,9.86-5.32,0-8-2-8-5.31,0-3,1.89-4.29,5.84-4.64,7.63-.68,13.72-1.2,17.32-2V74.8Z" transform="translate(0 0)"/><path class="cls-3" d="M271.78,45.9c-8.75,0-14.92,2.14-18.61,6.6H253V30.72H231.56V94.1h20.75v-5h0.18c3.86,4.46,9.77,6.87,19.29,6.87,13.9,0,26.68-7.64,26.68-25S285.68,45.9,271.78,45.9Zm-7,35.68c-8.23,0-11.75-3.95-11.75-10.64s3.52-10.63,11.84-10.63c7.72,0,11.66,4.63,11.66,10.63C276.5,77.12,273.07,81.58,264.75,81.58Z" transform="translate(0 0)"/><path class="cls-3" d="M334.39,84.15a15.78,15.78,0,0,1-6.09-.86,4.55,4.55,0,0,1-2.66-3.77H300.42C301.11,91.35,310.8,96,333.1,96c22.64,0,33.11-4.63,33.11-16.72,0-8-4.37-13.12-16-14.15l-20.41-1.8c-4.63-.43-5.75-1.71-5.75-2.92,0-1.8,1.2-3.26,7.63-3.26,3.17,0,5.15.51,6.35,1.2a3.1,3.1,0,0,1,1.63,2.92h24.19c-0.43-13.29-16.47-16-31-16-20.93,0-31.22,4.72-31.22,15.78,0,8.15,3.6,13.12,16,14.41l20.93,2.14c2.23,0.26,2.92,1.54,2.92,2.92C341.5,82.69,339.87,84.15,334.39,84.15Z" transform="translate(0 0)"/><rect class="cls-1" x="92.25" y="103.04" width="5.02" height="12.71"/><polygon class="cls-1" points="110.67 110.09 110.62 110.09 105.52 103.04 99.79 103.04 99.79 115.75 104.6 115.75 104.6 108.63 104.63 108.63 109.98 115.75 115.48 115.75 115.48 103.04 110.67 103.04 110.67 110.09"/><polygon class="cls-1" points="128.82 110.09 128.77 110.09 123.67 103.04 117.94 103.04 117.94 115.75 122.75 115.75 122.75 108.63 122.78 108.63 128.13 115.75 133.63 115.75 133.63 103.04 128.82 103.04 128.82 110.09"/><path class="cls-1" d="M144.11,102.6c-3,0-8.69.21-8.69,6.8s5.64,6.8,8.69,6.8,8.69-.21,8.69-6.8S147.15,102.6,144.11,102.6Zm0,10.39c-2,0-3.35-1-3.35-3.59s1.3-3.6,3.35-3.6,3.34,1,3.34,3.6S146.15,113,144.11,113Z" transform="translate(0 0)"/><polygon class="cls-1" points="163.75 103.04 160.96 111.19 160.92 111.19 158.13 103.04 152.6 103.04 158.3 115.75 163.57 115.75 169.27 103.04 163.75 103.04"/><path class="cls-1" d="M178.54,103h-6.16L167,115.76h5.34l0.54-1.47h5.23l0.54,1.47H184Zm-4.6,8.16,1.5-4.31h0l1.5,4.31h-3Z" transform="translate(0 0)"/><polygon class="cls-1" points="182.31 106.24 186.96 106.24 186.96 115.75 191.99 115.75 191.99 106.24 196.63 106.24 196.63 103.04 182.31 103.04 182.31 106.24"/><rect class="cls-1" x="197.85" y="103.04" width="5.02" height="12.71"/><path class="cls-1" d="M213.4,102.6c-3.05,0-8.69.21-8.69,6.8s5.64,6.8,8.69,6.8,8.69-.21,8.69-6.8S216.44,102.6,213.4,102.6Zm0,10.39c-2.05,0-3.35-1-3.35-3.59s1.3-3.6,3.35-3.6,3.35,1,3.35,3.6S215.44,113,213.4,113Z" transform="translate(0 0)"/><polygon class="cls-1" points="234.75 110.09 234.7 110.09 229.61 103.04 223.87 103.04 223.87 115.75 228.68 115.75 228.68 108.63 228.72 108.63 234.06 115.75 239.56 115.75 239.56 103.04 234.75 103.04 234.75 110.09"/><path class="cls-1" d="M264.78,114.26l-0.21-2.78a2.06,2.06,0,0,0-1.45-2v0a2.81,2.81,0,0,0,2-2.91,3.49,3.49,0,0,0-1.73-3.08,6.74,6.74,0,0,0-3-.46H249.77v12.72h5v-3.92h3.56c0.93,0,1.25.57,1.3,1.51a8.26,8.26,0,0,0,.27,2.41h5.48A2.85,2.85,0,0,1,264.78,114.26Zm-6.43-5.63h-3.56v-2.38h3.49c0.84,0,1.46.23,1.46,1.19A1.13,1.13,0,0,1,258.35,108.63Z" transform="translate(0 0)"/><path class="cls-1" d="M291.84,103h-6.16l-5.26,12.35v-2.73h-8.5v-1.71h7.89v-3.1h-7.89v-1.71h8.5V103H266.9v12.72h18.7l0.54-1.47h5.23l0.54,1.47h5.34Zm-4.6,8.16,1.5-4.31h0l1.5,4.31h-3Z" transform="translate(0 0)"/><polygon class="cls-1" points="302.92 103.04 297.9 103.04 297.9 115.75 310.7 115.75 310.7 112.33 302.92 112.33 302.92 103.04"/><rect class="cls-1" x="312.13" y="103.04" width="5.02" height="12.71"/><polygon class="cls-1" points="319.34 106.24 326.45 106.24 318.83 113.06 318.83 115.75 333.02 115.75 333.02 112.55 325.77 112.55 333.21 105.81 333.21 103.04 319.34 103.04 319.34 106.24"/><polygon class="cls-1" points="334.84 115.75 348.36 115.75 348.36 112.65 339.86 112.65 339.86 110.94 347.75 110.94 347.75 107.84 339.86 107.84 339.86 106.14 348.36 106.14 348.36 103.04 334.84 103.04 334.84 115.75"/><path class="cls-1" d="M359.79,103H350v12.72h9.88c4.22,0,6.48-1.89,6.48-6.36C366.38,104.71,364.1,103,359.79,103Zm-1.87,9.51H355v-6.3h2.88c2.3,0,3.23,1.14,3.23,3.15S360.22,112.55,357.92,112.55Z" transform="translate(0 0)"/></svg>