<svg id="Layer_1" data-name="Layer 1" xmlns="http://www.w3.org/2000/svg" viewBox="0 0 193.58 47.04"><defs><style>.cls-1{font-size:40.76px;fill:#fff;font-family:Adelle Sans;letter-spacing:-3px;}.cls-2{font-size:23.4px;letter-spacing:-1px;}.cls-3{fill:#e6e7e8;}.cls-4,.cls-6{fill:#328cc1;}.cls-5,.cls-6{font-size:12.57px;font-family:Source Sans Pro;font-weight:700;}.cls-5{fill:#d8b228;}</style></defs><title>logo</title><text class="cls-1" transform="translate(32.96 35.14)">FPDS<tspan class="cls-2" x="88.62" y="0"> </tspan></text><polygon class="cls-3" points="16.07 35.43 16.07 20.53 21.68 20.53 10.84 5.71 0 20.53 5.61 20.53 5.61 35.43 16.07 35.43"/><polygon class="cls-4" points="18.37 5.61 18.37 20.51 12.76 20.51 23.6 35.33 34.43 20.51 28.82 20.51 28.82 5.61 18.37 5.61"/><text class="cls-5" transform="translate(126.95 14.21)">F<tspan x="5.72" y="0">ede</tspan><tspan x="24.05" y="0">r</tspan><tspan x="28.06" y="0">al </tspan><tspan x="0" y="10.81">P</tspan><tspan x="6.97" y="10.81">r</tspan><tspan x="11.22" y="10.81">ocu</tspan><tspan x="29.32" y="10.81">r</tspan><tspan x="33.57" y="10.81">ement</tspan></text><text class="cls-6" transform="translate(126.95 35.33)">Da<tspan x="13.42" y="0">t</tspan><tspan x="17.46" y="0">a Sys</tspan><tspan x="42.71" y="0">t</tspan><tspan x="46.77" y="0">em</tspan></text></svg>